<?xml version="1.0" standalone="no"?>
<!DOCTYPE svg PUBLIC "-//W3C//DTD SVG 20010904//EN"
 "http://www.w3.org/TR/2001/REC-SVG-20010904/DTD/svg10.dtd">
<svg version="1.0" xmlns="http://www.w3.org/2000/svg"
 width="993.000000pt" height="522.000000pt" viewBox="0 0 993.000000 522.000000"
 preserveAspectRatio="xMidYMid meet">

<g transform="translate(0.000000,522.000000) scale(0.100000,-0.100000)"
fill="#000000" stroke="none">
<path d="M2053 4673 c37 -2 96 -2 130 0 34 2 4 3 -68 3 -71 0 -99 -1 -62 -3z"/>
<path d="M1918 4663 c12 -2 32 -2 45 0 12 2 2 4 -23 4 -25 0 -35 -2 -22 -4z"/>
<path d="M2268 4663 c12 -2 32 -2 45 0 12 2 2 4 -23 4 -25 0 -35 -2 -22 -4z"/>
<path d="M1745 4636 c-300 -79 -537 -234 -576 -379 -6 -23 -13 -47 -15 -54 -2
-7 -27 -24 -56 -39 -114 -57 -224 -150 -277 -233 -41 -63 -65 -160 -56 -225
21 -160 150 -298 385 -410 243 -115 500 -174 844 -192 l126 -7 17 -48 c14 -38
22 -48 35 -43 12 4 185 -190 704 -793 379 -439 727 -843 775 -898 66 -76 88
-109 92 -135 2 -19 4 -3 4 35 0 41 -2 59 -6 42 -6 -26 -10 -22 -111 95 -58 67
-401 466 -763 886 -362 421 -661 770 -663 777 -3 7 0 16 6 20 8 5 -5 18 -35
35 l-46 27 118 7 c347 20 599 79 838 196 232 113 355 241 380 398 l7 42 1464
0 c1295 0 1464 -2 1464 -15 0 -19 18 -19 65 1 20 8 39 13 42 10 3 -3 9 -26 14
-53 5 -26 19 -67 31 -92 28 -58 126 -161 202 -214 176 -119 517 -232 762 -251
48 -4 33 0 -51 13 -229 37 -391 85 -560 166 -246 118 -378 270 -378 434 1 99
31 168 110 252 77 81 166 143 295 204 51 24 89 44 84 45 -16 0 -190 -86 -251
-125 -126 -81 -245 -233 -245 -315 0 -48 -12 -54 -66 -36 -58 19 -54 19 -54 1
0 -13 -169 -15 -1464 -15 l-1463 0 -17 67 c-9 36 -30 88 -47 115 -54 83 -174
182 -294 240 l-47 23 7 55 c6 51 5 53 -9 35 -13 -17 -17 -18 -36 -7 -24 15
-23 11 12 -40 10 -14 18 -29 18 -31 0 -3 -24 5 -52 17 -113 50 -404 128 -465
125 -10 0 34 -11 97 -25 311 -64 561 -182 703 -333 79 -84 109 -153 110 -252
1 -274 -385 -517 -953 -599 -221 -32 -549 -32 -770 0 -364 53 -660 172 -822
331 -125 122 -161 253 -108 394 18 48 39 76 104 141 150 149 375 253 688 319
62 13 105 24 95 24 -61 3 -352 -75 -464 -125 l-53 -23 0 21 c0 36 40 107 89
157 108 111 323 214 544 260 51 11 79 20 62 20 -16 0 -70 -11 -120 -23z"/>
<path d="M2425 4640 c49 -11 91 -18 93 -16 5 6 -133 36 -160 35 -13 0 17 -9
67 -19z"/>
<path d="M2579 4599 c30 -10 56 -17 58 -15 5 5 -86 36 -101 35 -6 0 13 -9 43
-20z"/>
<path d="M2660 4570 c8 -5 20 -10 25 -10 6 0 3 5 -5 10 -8 5 -19 10 -25 10 -5
0 -3 -5 5 -10z"/>
<path d="M2766 4522 c112 -60 200 -128 244 -189 46 -65 55 -63 10 3 -40 58
-131 130 -229 182 -43 23 -82 42 -87 42 -5 0 23 -17 62 -38z"/>
<path d="M1825 4370 c-122 -14 -131 -19 -20 -12 129 9 491 9 620 0 73 -4 86
-4 50 3 -71 13 -555 19 -650 9z"/>
<path d="M7752 4373 c59 -2 158 -2 220 0 62 1 14 3 -107 3 -121 0 -172 -2
-113 -3z"/>
<path d="M7573 4363 c15 -2 37 -2 50 0 12 2 0 4 -28 4 -27 0 -38 -2 -22 -4z"/>
<path d="M8123 4363 c15 -2 37 -2 50 0 12 2 0 4 -28 4 -27 0 -38 -2 -22 -4z"/>
<path d="M7473 4353 c9 -2 25 -2 35 0 9 3 1 5 -18 5 -19 0 -27 -2 -17 -5z"/>
<path d="M8223 4353 c9 -2 25 -2 35 0 9 3 1 5 -18 5 -19 0 -27 -2 -17 -5z"/>
<path d="M7408 4343 c6 -2 18 -2 25 0 6 3 1 5 -13 5 -14 0 -19 -2 -12 -5z"/>
<path d="M8298 4343 c6 -2 18 -2 25 0 6 3 1 5 -13 5 -14 0 -19 -2 -12 -5z"/>
<path d="M7320 4330 c-20 -6 -21 -8 -5 -8 11 0 34 4 50 8 27 7 27 8 5 8 -14 0
-36 -4 -50 -8z"/>
<path d="M8358 4333 c6 -2 18 -2 25 0 6 3 1 5 -13 5 -14 0 -19 -2 -12 -5z"/>
<path d="M8420 4320 c14 -4 34 -8 45 -8 16 0 15 2 -5 8 -14 4 -34 8 -45 8 -16
0 -15 -2 5 -8z"/>
<path d="M7258 4313 c6 -2 18 -2 25 0 6 3 1 5 -13 5 -14 0 -19 -2 -12 -5z"/>
<path d="M7218 4303 c7 -3 16 -2 19 1 4 3 -2 6 -13 5 -11 0 -14 -3 -6 -6z"/>
<path d="M8498 4303 c7 -3 16 -2 19 1 4 3 -2 6 -13 5 -11 0 -14 -3 -6 -6z"/>
<path d="M8545 4290 c11 -5 27 -9 35 -9 9 0 8 4 -5 9 -11 5 -27 9 -35 9 -9 0
-8 -4 5 -9z"/>
<path d="M7087 4268 c-32 -11 -57 -22 -54 -24 2 -2 35 7 73 20 38 14 62 24 54
24 -8 0 -41 -9 -73 -20z"/>
<path d="M8630 4266 c0 -2 28 -14 63 -26 154 -56 335 -166 409 -249 22 -25 55
-75 72 -111 42 -88 44 -187 5 -270 -54 -115 -181 -224 -360 -309 -279 -132
-552 -184 -974 -185 -259 -1 -259 -1 -126 -11 l135 -10 -43 -28 c-34 -22 -40
-31 -31 -42 9 -11 -128 -198 -662 -905 l-672 -891 -11 53 c-16 78 -50 135
-124 209 -64 64 -137 116 -222 159 l-41 22 4 49 c4 37 2 47 -7 39 -8 -6 -22 6
-46 43 -46 67 -131 136 -240 192 -48 25 -91 45 -96 45 -4 0 33 -22 83 -48 104
-54 188 -115 224 -164 49 -63 65 -103 33 -77 -13 11 -12 5 5 -24 12 -21 22
-40 22 -43 0 -2 -17 3 -37 12 -58 25 -203 74 -216 73 -7 0 31 -15 83 -33 107
-37 256 -109 339 -164 121 -80 214 -200 227 -292 4 -25 9 -50 13 -56 3 -6 186
227 406 519 974 1292 956 1269 970 1257 11 -9 17 0 31 44 l18 56 55 0 c92 0
278 19 410 41 330 55 641 192 777 342 26 28 61 81 78 117 27 56 31 76 31 145
0 65 -5 90 -26 135 -65 138 -248 277 -482 365 -69 25 -77 28 -77 21z"/>
<path d="M5013 2143 c48 -2 125 -2 170 0 45 1 6 3 -88 3 -93 0 -130 -2 -82 -3z"/>
<path d="M4868 2133 c12 -2 30 -2 40 0 9 3 -1 5 -23 4 -22 0 -30 -2 -17 -4z"/>
<path d="M5283 2133 c9 -2 25 -2 35 0 9 3 1 5 -18 5 -19 0 -27 -2 -17 -5z"/>
<path d="M4770 2120 c-20 -6 -21 -8 -5 -8 11 0 34 4 50 8 27 7 27 8 5 8 -14 0
-36 -4 -50 -8z"/>
<path d="M5419 2109 c47 -10 86 -17 89 -15 5 5 -132 36 -155 35 -10 0 20 -9
66 -20z"/>
<path d="M4718 2103 c7 -3 16 -2 19 1 4 3 -2 6 -13 5 -11 0 -14 -3 -6 -6z"/>
<path d="M4640 2085 c-19 -7 -28 -13 -20 -13 8 0 31 6 50 13 19 7 28 13 20 13
-8 0 -31 -6 -50 -13z"/>
<path d="M5565 2070 c27 -12 43 -12 25 0 -8 5 -22 9 -30 9 -10 0 -8 -3 5 -9z"/>
<path d="M4510 2037 c-198 -87 -347 -213 -365 -312 -3 -21 0 -17 11 13 9 23
39 67 67 98 77 85 153 132 357 222 14 6 21 11 15 11 -5 1 -44 -14 -85 -32z"/>
<path d="M5620 2050 c8 -5 20 -10 25 -10 6 0 3 5 -5 10 -8 5 -19 10 -25 10 -5
0 -3 -5 5 -10z"/>
<path d="M4850 1850 c-134 -13 -145 -20 -20 -12 134 9 384 9 520 1 69 -5 88
-4 55 1 -78 14 -450 20 -555 10z"/>
<path d="M4673 1823 c9 -2 23 -2 30 0 6 3 -1 5 -18 5 -16 0 -22 -2 -12 -5z"/>
<path d="M5483 1823 c9 -2 25 -2 35 0 9 3 1 5 -18 5 -19 0 -27 -2 -17 -5z"/>
<path d="M4525 1800 c-94 -24 -72 -24 40 -1 50 11 77 20 60 19 -16 0 -61 -8
-100 -18z"/>
<path d="M5644 1795 c61 -13 111 -23 113 -21 6 5 -117 34 -172 40 -27 3 -1 -5
59 -19z"/>
<path d="M4405 1770 c-13 -5 -14 -9 -5 -9 8 0 24 4 35 9 13 5 14 9 5 9 -8 0
-24 -4 -35 -9z"/>
<path d="M4265 1724 c-49 -20 -100 -37 -112 -38 -13 0 -23 -4 -23 -7 0 -4 -43
-32 -97 -64 -143 -86 -259 -212 -279 -304 -3 -14 8 2 25 37 73 149 252 281
516 378 49 18 83 33 75 33 -8 0 -55 -16 -105 -35z"/>
<path d="M6432 1170 c0 -19 2 -27 5 -17 2 9 2 25 0 35 -3 9 -5 1 -5 -18z"/>
<path d="M3760 1107 c0 -15 43 -92 74 -131 51 -63 163 -144 280 -202 61 -30
115 -54 121 -54 5 1 -31 21 -82 45 -174 82 -312 196 -368 304 -13 25 -24 42
-25 38z"/>
<path d="M6399 1069 c-18 -44 -120 -152 -194 -204 -69 -49 -192 -112 -283
-145 -34 -13 -60 -25 -58 -27 5 -5 169 59 231 90 73 36 185 119 236 175 47 52
95 129 86 138 -2 3 -10 -10 -18 -27z"/>
<path d="M4250 717 c0 -6 120 -47 134 -46 6 0 -11 8 -39 18 -76 27 -95 33 -95
28z"/>
<path d="M5775 670 c-13 -5 -14 -9 -5 -9 8 0 24 4 35 9 13 5 14 9 5 9 -8 0
-24 -4 -35 -9z"/>
<path d="M4415 660 c11 -5 27 -9 35 -9 9 0 8 4 -5 9 -11 5 -27 9 -35 9 -9 0
-8 -4 5 -9z"/>
<path d="M5728 653 c7 -3 16 -2 19 1 4 3 -2 6 -13 5 -11 0 -14 -3 -6 -6z"/>
<path d="M4490 640 c14 -4 34 -8 45 -8 16 0 15 2 -5 8 -14 4 -34 8 -45 8 -16
0 -15 -2 5 -8z"/>
<path d="M5688 643 c7 -3 16 -2 19 1 4 3 -2 6 -13 5 -11 0 -14 -3 -6 -6z"/>
<path d="M5605 630 c-27 -7 -27 -8 -5 -8 14 0 36 4 50 8 20 6 21 8 5 8 -11 0
-33 -4 -50 -8z"/>
<path d="M4568 623 c6 -2 18 -2 25 0 6 3 1 5 -13 5 -14 0 -19 -2 -12 -5z"/>
<path d="M4623 613 c9 -2 23 -2 30 0 6 3 -1 5 -18 5 -16 0 -22 -2 -12 -5z"/>
<path d="M5533 613 c9 -2 23 -2 30 0 6 3 -1 5 -18 5 -16 0 -22 -2 -12 -5z"/>
<path d="M4683 603 c9 -2 25 -2 35 0 9 3 1 5 -18 5 -19 0 -27 -2 -17 -5z"/>
<path d="M5463 603 c9 -2 25 -2 35 0 9 3 1 5 -18 5 -19 0 -27 -2 -17 -5z"/>
<path d="M4768 593 c12 -2 30 -2 40 0 9 3 -1 5 -23 4 -22 0 -30 -2 -17 -4z"/>
<path d="M5388 593 c12 -2 30 -2 40 0 9 3 -1 5 -23 4 -22 0 -30 -2 -17 -4z"/>
<path d="M4963 579 c70 -3 184 -3 255 0 102 6 77 7 -128 7 -205 0 -230 -1
-127 -7z"/>
</g>
</svg>
